# xmcd CD Database Entry
#
# Track frame offsets:
# 150
# 3632
# 7873
# 13457
# 19276
# 24043
# 29735
# 37252
# 44987
# 50032
# 56388
# 64359
# 69777
# 75797
# 84746
# 89759
# 96470
# 101945
# 105854
# 112830
# 120685
# 123585
# 126878
# 131973
# 135987
# 142869
# 147087
# 152917
# 154734
# 164197
# 167911
# 173583
# 177431
# 182997
# 185571
# 191265
# 202831
# 211218
# 220395
# 227617
# 233401
# 238694
# 244499
# 253915
# 257130
# 261007
# 268689
# 272470
# 275088
# 281194
#
# Disc length: 3834 seconds
#
# Revision: 1
# Processed by: cddbd v1.4PL0 Copyright (c) Steve Scherf et al.
# Submitted via: tcd 2.0b
#
DISCID=e90ef832
DTITLE=Onbekend - Onbekend
DYEAR=1900
DGENRE=
TTITLE0=Nummer 1
TTITLE1=Nummer 2
TTITLE2=Nummer 3
TTITLE3=Nummer 4
TTITLE4=Nummer 5
TTITLE5=Nummer 6
TTITLE6=Nummer 7
TTITLE7=Nummer 8
TTITLE8=Nummer 9
TTITLE9=Nummer 10
TTITLE10=Nummer 11
TTITLE11=Nummer 12
TTITLE12=Nummer 13
TTITLE13=Nummer 14
TTITLE14=Nummer 15
TTITLE15=Nummer 16
TTITLE16=Nummer 17
TTITLE17=Nummer 18
TTITLE18=Nummer 19
TTITLE19=Nummer 20
TTITLE20=Nummer 21
TTITLE21=Nummer 22
TTITLE22=Nummer 23
TTITLE23=Nummer 24
TTITLE24=Nummer 25
TTITLE25=Nummer 26
TTITLE26=Nummer 27
TTITLE27=Nummer 28
TTITLE28=Nummer 29
TTITLE29=Nummer 30
TTITLE30=Nummer 31
TTITLE31=Nummer 32
TTITLE32=Nummer 33
TTITLE33=Nummer 34
TTITLE34=Nummer 35
TTITLE35=Nummer 36
TTITLE36=Nummer 37
TTITLE37=Nummer 38
TTITLE38=Nummer 39
TTITLE39=Nummer 40
TTITLE40=Nummer 41
TTITLE41=Nummer 42
TTITLE42=Nummer 43
TTITLE43=Nummer 44
TTITLE44=Nummer 45
TTITLE45=Nummer 46
TTITLE46=Nummer 47
TTITLE47=Nummer 48
TTITLE48=Nummer 49
TTITLE49=Nummer 50
EXTD=
EXTT0=
EXTT1=
EXTT2=
EXTT3=
EXTT4=
EXTT5=
EXTT6=
EXTT7=
EXTT8=
EXTT9=
EXTT10=
EXTT11=
EXTT12=
EXTT13=
EXTT14=
EXTT15=
EXTT16=
EXTT17=
EXTT18=
EXTT19=
EXTT20=
EXTT21=
EXTT22=
EXTT23=
EXTT24=
EXTT25=
EXTT26=
EXTT27=
EXTT28=
EXTT29=
EXTT30=
EXTT31=
EXTT32=
EXTT33=
EXTT34=
EXTT35=
EXTT36=
EXTT37=
EXTT38=
EXTT39=
EXTT40=
EXTT41=
EXTT42=
EXTT43=
EXTT44=
EXTT45=
EXTT46=
EXTT47=
EXTT48=
EXTT49=
PLAYORDER=
